<svg width="30" height="30" viewBox="0 0 30 30" fill="none" xmlns="http://www.w3.org/2000/svg">
<path d="M15 0C6.71651 0 0 6.71651 0 15C0 23.2835 6.71651 30 15 30C23.2835 30 30 23.2835 30 15C30 6.71651 23.2835 0 15 0ZM24.0845 20.9767C23.7262 21.9874 22.3049 22.8291 21.1689 23.0738C20.3942 23.2398 19.3777 23.3709 15.967 21.9553C11.601 20.1466 8.79029 15.7107 8.57185 15.4223C8.36214 15.134 6.8068 13.0748 6.8068 10.9427C6.8068 8.81068 7.89029 7.77379 8.32427 7.32816C8.68252 6.96117 9.27379 6.79515 9.84175 6.79515C10.0252 6.79515 10.1913 6.80388 10.3398 6.81262C10.7767 6.8301 10.9951 6.85631 11.2835 7.5466C11.6417 8.40874 12.5155 10.5408 12.6175 10.7621C12.7223 10.9806 12.8301 11.2777 12.6816 11.566C12.5417 11.8631 12.4194 11.9942 12.201 12.2476C11.9825 12.501 11.7728 12.6932 11.5544 12.9641C11.3534 13.2 11.1262 13.4534 11.3796 13.8874C11.633 14.3155 12.5039 15.7398 13.7884 16.8816C15.4456 18.3583 16.7913 18.8301 17.2718 19.0311C17.6301 19.1796 18.0583 19.1447 18.3204 18.865C18.6524 18.5068 19.0631 17.9126 19.4796 17.3272C19.7767 16.9078 20.1524 16.8553 20.5456 17.0039C20.9476 17.1437 23.068 18.1922 23.5049 18.4107C23.9417 18.6291 24.2301 18.734 24.335 18.9175C24.4427 19.0981 24.4427 19.9631 24.0845 20.9767Z" fill="#83DCCF"/>
</svg>
