<svg width="30" height="30" viewBox="0 0 30 30" fill="none" xmlns="http://www.w3.org/2000/svg">
<path fill-rule="evenodd" clip-rule="evenodd" d="M15 30C23.2843 30 30 23.2843 30 15C30 6.71573 23.2843 0 15 0C6.71573 0 0 6.71573 0 15C0 23.2843 6.71573 30 15 30ZM10.7504 20.9658H7.90648C7.78769 20.9658 7.69062 20.929 7.61423 20.8543C7.53784 20.7795 7.5 20.6844 7.5 20.5682V18.9771C7.5 18.8614 7.53819 18.7661 7.61458 18.692C7.69062 18.6172 7.78804 18.5798 7.90648 18.5798H10.7501V17.1132H7.90613C7.78734 17.1132 7.69062 17.0762 7.61423 17.0014C7.53784 16.9266 7.5 16.8316 7.5 16.7153V14.8635C7.5 14.7557 7.53819 14.6624 7.61458 14.5839C7.69062 14.5053 7.78804 14.4659 7.90648 14.4659H10.7501V6.6476C10.7501 6.53234 10.7883 6.43662 10.8643 6.36184C10.9407 6.28739 11.0378 6.25 11.1565 6.25H17.999C19.6919 6.25 21.0736 6.75601 22.1441 7.76631C23.2146 8.7773 23.75 10.0826 23.75 11.6813C23.75 13.2809 23.2146 14.5859 22.1441 15.5962C21.0732 16.6076 19.6915 17.1125 17.999 17.1125H13.6827V18.5791H20.0942C20.2122 18.5791 20.31 18.6165 20.386 18.6913C20.4624 18.7654 20.5003 18.8614 20.5003 18.9767V20.5678C20.5003 20.6841 20.4624 20.7791 20.386 20.8539C20.31 20.9287 20.2126 20.9658 20.0942 20.9658H13.683V23.3524C13.683 23.4684 13.6427 23.5634 13.5625 23.6378C13.4822 23.7126 13.3869 23.75 13.2769 23.75H11.1569C11.0381 23.75 10.9407 23.7126 10.8647 23.6378C10.7883 23.5637 10.7504 23.4687 10.7504 23.3524V20.9658ZM17.7453 8.89771H13.6827V14.4659H17.7453C18.6424 14.4659 19.366 14.2093 19.9161 13.695C20.4663 13.1818 20.7414 12.5104 20.7414 11.6816C20.7414 10.8535 20.4663 10.1821 19.9161 9.66822C19.366 9.15466 18.6424 8.89771 17.7453 8.89771Z" fill="#83DCCF"/>
</svg>
