<svg width="29" height="29" viewBox="0 0 29 29" fill="none" xmlns="http://www.w3.org/2000/svg">
<path d="M14.4824 11.3558C12.7854 11.3558 11.4123 12.7294 11.4123 14.4272C11.4123 16.125 12.7854 17.4987 14.4824 17.4987C16.1794 17.4987 17.5524 16.125 17.5524 14.4272C17.5524 12.7294 16.1794 11.3558 14.4824 11.3558Z" fill="#83DCCF"/>
<path d="M14.4862 0C6.48716 0 0 6.49021 0 14.493C0 22.4958 6.48716 28.986 14.4862 28.986C22.4852 28.986 28.9724 22.4958 28.9724 14.493C28.9724 6.48635 22.4852 0 14.4862 0ZM22.9982 19.243C22.9982 21.4424 21.2009 23.2444 18.9987 23.2444H9.96987C7.77148 23.2444 5.97035 21.4463 5.97035 19.243V9.74304C5.97035 7.54362 7.76763 5.74164 9.96987 5.74164H18.9987C21.1971 5.74164 22.9982 7.53976 22.9982 9.74304V19.243Z" fill="#83DCCF"/>
<path d="M18.0461 7.0497H10.9264C9.95831 7.0497 9.04425 7.4317 8.35388 8.12239C7.66351 8.81308 7.28168 9.72758 7.28168 10.6961V18.286C7.28168 19.2545 7.66351 20.169 8.35388 20.8597C9.04425 21.5504 9.95831 21.9324 10.9264 21.9324H18.0461C19.0141 21.9324 19.9282 21.5504 20.6186 20.8597C21.3089 20.169 21.6907 19.2545 21.6907 18.286V10.6961C21.6907 9.72758 21.3089 8.81308 20.6186 8.12239C19.9282 7.4317 19.0141 7.0497 18.0461 7.0497ZM14.5132 19.1156C11.9253 19.1156 9.82333 17.0165 9.82333 14.4235C9.82333 11.8344 11.9214 9.73144 14.5132 9.73144C17.105 9.73144 19.2031 11.8305 19.2031 14.4235C19.1992 17.0165 17.1011 19.1156 14.5132 19.1156ZM19.2764 10.7733C18.6631 10.7733 18.1656 10.2755 18.1656 9.66199C18.1656 9.04847 18.6631 8.5507 19.2764 8.5507C19.8896 8.5507 20.3871 9.04847 20.3871 9.66199C20.3871 10.2755 19.8896 10.7733 19.2764 10.7733Z" fill="#83DCCF"/>
</svg>
