<svg width="29" height="29" viewBox="0 0 29 29" fill="none" xmlns="http://www.w3.org/2000/svg">
<path d="M14.4862 0C6.48717 0 0 6.49021 0 14.493C0 22.4958 6.48717 28.986 14.4862 28.986C22.4852 28.986 28.9724 22.4958 28.9724 14.493C28.9724 6.49021 22.4852 0 14.4862 0ZM20.8075 21.207C20.7767 21.207 20.742 21.207 20.7111 21.207C19.6466 21.0334 18.9215 20.2809 18.3006 19.5825C17.9496 19.189 17.4174 18.2976 16.7772 18.4018C15.8708 18.5484 16.3182 20.0996 15.9402 20.7633C15.6355 21.2996 14.3319 21.2032 13.4333 21.1067C10.5985 20.8057 9.14837 19.2931 7.87948 17.6648C6.52188 15.9246 5.46511 14.1071 4.48548 12.1045C4.16922 11.4563 3.74883 10.7424 3.74883 9.93982C4.20779 9.56554 4.95987 9.69287 5.7158 9.69287C6.35603 9.69287 7.35881 9.5501 7.82934 9.78934C8.10703 9.93211 8.39243 10.6845 8.61613 11.1669C9.13294 12.2704 9.61119 13.0653 10.2398 13.9721C10.5137 14.3657 10.9302 15.1027 11.42 15.0062C11.8944 14.9097 11.9407 13.7406 11.96 12.9881C11.9831 12.1354 11.96 11.0781 11.7132 10.6267C11.4817 10.2022 11.0575 10.1906 10.6332 9.93982C10.9881 9.22212 11.9638 9.15266 13.1402 9.15266C14.1275 9.15266 15.5083 9.04076 15.8939 9.69287C16.2873 10.3566 16.0174 11.5527 15.9904 12.4479C15.9634 13.455 15.7898 14.493 16.4802 14.956C17.0163 14.8982 17.3017 14.3772 17.6102 13.9721C18.289 13.0846 18.7094 12.3129 19.2339 11.1669C19.4499 10.6961 19.6813 9.88966 20.0709 9.73917C20.6648 9.51537 21.6097 9.68901 22.4814 9.68901C23.1949 9.68901 24.4638 9.49222 24.6952 9.98227C24.8842 10.3913 24.3288 11.4215 24.1552 11.7032C23.4957 12.7836 22.8516 13.4705 22.1381 14.4081C21.8527 14.7824 21.2665 15.3843 21.3012 15.9824C21.3282 16.4377 21.7833 16.785 22.1381 17.113C22.9018 17.823 23.4379 18.3401 24.055 19.1311C24.2864 19.4282 24.7916 20.0726 24.7415 20.4584C24.5911 21.6739 21.7602 20.9176 20.8075 21.207Z" fill="#83DCCF"/>
</svg>
