<svg width="53" height="63" viewBox="0 0 53 63" fill="none" xmlns="http://www.w3.org/2000/svg">
<path d="M36.0796 50.5906L33.7846 46.5278V39.0095C33.7846 38.5033 33.3745 38.0923 32.8693 38.0923H20.6969C20.1917 38.0923 19.7815 38.5033 19.7815 39.0095V46.5278L17.4866 50.5906C17.2376 51.0318 17.4457 51.3885 17.9508 51.3885H35.6153C36.1205 51.3885 36.3286 51.0305 36.0796 50.5906ZM34.5953 50.4713H29.5255L29.0251 49.4264C28.9373 49.2432 28.7028 49.0961 28.5007 49.0961H25.2062C25.0041 49.0961 24.7696 49.2444 24.6818 49.4264L24.1814 50.4713H18.9732C18.7712 50.4713 18.6882 50.3279 18.788 50.1519L20.1376 47.7631C20.2374 47.5872 20.4816 47.4438 20.6836 47.4438H32.8849C33.087 47.4438 33.3312 47.5872 33.431 47.7631L34.7806 50.1519C34.8804 50.3279 34.7974 50.4713 34.5953 50.4713Z" fill="white"/>
<path d="M0 36.7246C0 51.2357 11.7394 62.9988 26.2213 62.9988C40.7031 62.9988 52.4425 51.2357 52.4425 36.7246C52.4425 29.281 49.9106 18.8123 39.7228 14.0516L38.5669 52.0854H38.5621C38.5657 52.1131 38.5669 52.142 38.5669 52.1697C38.5669 53.9426 31.8095 55.3805 23.4753 55.3805C15.141 55.3805 8.38239 53.9426 8.38239 52.1697C8.38239 52.142 8.38479 52.1131 8.3872 52.0854H8.38239L8.3896 52.0745C8.42208 51.8395 8.57243 51.6117 8.82983 51.3924L34.3908 11.7508C31.8192 10.9071 29.0731 10.4503 26.2213 10.4503C11.7394 10.4503 0 22.2135 0 36.7246Z" fill="white"/>
<path d="M9.99271 5.30668L8.66962 0H7.27797L5.9645 5.30668L4.6402 0H3.24976L5.26927 8.0956H6.66093L7.97319 2.78772L9.29749 8.0956H10.6891L12.6978 0H11.317L9.99271 5.30668Z" fill="white"/>
<path d="M13.8203 8.0956H14.4927V8.10645H18.6448V6.74573H15.1663V4.72213H17.9724V3.37347H15.1663V1.34866H18.6448V0H13.8203V8.0956Z" fill="white"/>
<path d="M24.6604 3.75566C24.8697 3.55318 25.0285 3.31574 25.1367 3.04215C25.245 2.76856 25.2991 2.48895 25.2991 2.20451C25.2991 1.70193 25.1415 1.2596 24.8276 0.87754C24.6027 0.600335 24.332 0.384597 24.0145 0.231531C23.697 0.0784656 23.3506 0.00133022 22.9765 0.00133022H20.216V8.09693H23.1449C23.6007 8.09693 24.0181 7.99208 24.3958 7.78237C24.7735 7.57265 25.0766 7.2834 25.3051 6.917C25.5337 6.5494 25.6515 6.14083 25.6587 5.69127C25.6431 5.30198 25.5505 4.93438 25.3785 4.58968C25.2065 4.24257 24.9671 3.96537 24.6604 3.75566ZM21.5524 1.18006H22.5735C22.618 1.18006 22.6854 1.18006 22.7756 1.18006C22.8658 1.18006 22.95 1.18367 23.0282 1.1909C23.1064 1.19813 23.187 1.22103 23.27 1.2584C23.4648 1.34156 23.614 1.47172 23.7186 1.65251C23.8233 1.83209 23.8762 2.02372 23.8762 2.2262C23.8762 2.42145 23.8233 2.61068 23.7186 2.79387C23.614 2.97707 23.4636 3.11085 23.27 3.19281C23.217 3.21571 23.1485 3.23379 23.0619 3.24945C22.9753 3.26512 22.8995 3.27235 22.8321 3.27235H21.5524V1.18006ZM24.0482 6.35295C23.9243 6.56266 23.7439 6.72055 23.5045 6.8254C23.4227 6.86277 23.3097 6.88687 23.1677 6.89892C23.0258 6.90977 22.8273 6.9158 22.5735 6.9158H21.5524V4.45349H22.5735C22.843 4.45349 23.039 4.45952 23.1629 4.47036C23.2868 4.48121 23.3999 4.50652 23.5057 4.54388C23.7451 4.64151 23.9267 4.79337 24.0494 4.99946C24.1733 5.20556 24.2346 5.43215 24.2346 5.67922C24.2334 5.91786 24.1721 6.14324 24.0482 6.35295Z" fill="white"/>
<path d="M28.5761 0H27.2289V8.10645H28.5761V0Z" fill="white"/>
<path d="M35.5608 4.24968C35.8038 3.80012 35.9252 3.27102 35.9252 2.66479C35.9252 1.87777 35.7172 1.23658 35.3022 0.742428C34.8872 0.24828 34.3051 0 33.5569 0H30.5944V8.0956H31.885V5.39707H33.1865L34.4999 8.0956H35.9252L34.5228 5.20544C34.9714 5.01862 35.3178 4.69923 35.5608 4.24968ZM34.2365 3.82302C34.008 4.093 33.6772 4.22799 33.243 4.22799H31.885V1.18114H33.243C33.67 1.18114 33.9983 1.31251 34.2305 1.57525C34.4626 1.83799 34.5781 2.20921 34.5781 2.68889C34.5793 3.1746 34.465 3.55305 34.2365 3.82302Z" fill="white"/>
<path d="M38.7872 0L36.319 8.0956H37.6541L38.3277 5.90327H41.111L41.7725 8.0956H43.1077L40.6395 0H38.7872ZM38.7427 4.5534L39.7193 1.34866L40.696 4.5534H38.7427Z" fill="white"/>
<path d="M46.2046 3.38432L44.3643 0H42.8271L45.5094 4.72213V8.0956H46.8445V4.72213L49.5604 0H48.1231L46.2046 3.38432Z" fill="white"/>
</svg>
